<svg width="35" height="24" viewBox="0 0 35 24" fill="none" xmlns="http://www.w3.org/2000/svg">
<path d="M15.8021 4.23667C16.482 4.23667 17.0833 4.67798 17.0833 5.17695C17.0833 5.69598 16.5093 6.11722 15.8021 6.11722C13.231 6.11722 2.5625 6.11722 2.5625 6.11722V21.1616H31.6042V10.193C31.6042 9.67396 32.1782 9.25271 32.8854 9.25271C33.5927 9.25271 34.1667 9.67396 34.1667 10.193V21.7884C34.1667 22.567 33.2749 23.0421 32.4583 23.0421H1.70833C0.888333 23.0421 0 22.567 0 21.7884V5.49037C0 4.88734 0.649167 4.23667 1.70833 4.23667H15.8021ZM18.4005 16.3837L33.796 5.08543C34.0232 4.91869 34.1667 4.67296 34.1667 4.41846C34.1667 4.19405 34.0556 3.96337 33.7943 3.77281L29.655 0.745131C29.4107 0.565852 29.0861 0.475586 28.7632 0.475586C28.4403 0.475586 28.1175 0.565852 27.8697 0.745131L12.4486 12.0234C11.6935 13.7422 10.4704 16.5191 10.2893 16.978C10.074 17.5208 10.6275 18.0236 11.2665 18.0236C11.9669 18.0236 12.4555 17.8995 18.4005 16.3837ZM14.543 13.3849L16.5418 14.853C15.3391 15.1438 14.3654 15.377 13.5881 15.5626L14.543 13.3849ZM16.1967 11.9381L28.7632 2.74728L31.0643 4.42974L18.5149 13.6407L16.1967 11.9381Z" fill="black"/>
</svg>
