<svg width="78" height="78" viewBox="0 0 78 78" fill="none" xmlns="http://www.w3.org/2000/svg">
<path d="M5.86315 18.435C12.7484 7.37246 25.0208 0 39.0019 0C60.5274 0 77.9998 17.4755 77.9998 38.996C77.9998 60.5244 60.5274 77.9998 39.0019 77.9998C18.5413 77.9998 1.73593 62.2095 0.124831 42.1595C0.031208 40.9815 0.862113 38.996 3.04665 38.996C4.57193 38.996 5.83585 40.1663 5.96068 41.6876C7.32992 58.73 21.6114 72.1487 39.0019 72.1487C57.2974 72.1487 72.1484 57.2945 72.1484 38.996C72.1484 20.7053 57.2974 5.85116 39.0019 5.85116C27.1546 5.85116 16.7508 12.0807 10.8915 21.4347L18.6583 21.4542C20.2733 21.4542 21.5841 22.7649 21.5841 24.3798C21.5841 25.9947 20.2733 27.3054 18.6583 27.3054H2.92573C1.31072 27.3054 0 25.9947 0 24.3798V8.5856C0 6.97068 1.31072 5.66002 2.92573 5.66002C4.54073 5.66002 5.85145 6.96678 5.85145 8.5856L5.86315 18.435ZM35.0697 18.517L35.097 40.217C35.097 41.3404 35.7407 42.3624 36.751 42.85L52.2691 50.3707C53.7241 51.0728 55.4717 50.4643 56.1739 49.0093C56.8761 47.5543 56.2676 45.8068 54.8125 45.1046L40.9446 38.3758L40.9211 18.5092C40.9211 16.8942 39.6065 15.5875 37.9954 15.5875C36.3804 15.5875 35.0697 16.902 35.0697 18.517Z" fill="black"/>
</svg>
