<svg width="78" height="78" viewBox="0 0 78 78" fill="none" xmlns="http://www.w3.org/2000/svg">
<path d="M67.6714 58.8119C56.4946 56.2314 46.0882 53.9694 51.1289 44.4534C66.4656 15.4895 55.1946 0 38.9999 0C22.4835 0 11.4887 16.0842 26.8709 44.4534C32.0644 54.0246 21.2647 56.2866 10.3285 58.8119C0.646748 61.0479 0 65.7766 0 73.9666L0.01625 77.9998H6.49999C6.49999 67.8144 6.09374 66.4624 12.4735 64.9901C21.7392 62.8549 30.4882 60.8366 33.6797 53.7581C34.8464 51.1744 35.6037 46.9234 32.5812 41.3594C25.8927 29.0127 24.2027 18.3202 27.9564 12.025C32.3569 4.63124 45.5909 4.66699 49.9491 11.9145C53.6866 18.1252 52.0259 28.8762 45.3894 41.4114C42.4319 46.9982 43.2087 51.2361 44.3819 53.8069C47.5994 60.8496 56.4296 62.8874 65.7799 65.0454C71.8866 66.4624 71.4999 67.9119 71.4999 77.9998H77.9836L77.9998 73.9666C77.9998 65.7766 77.3531 61.0479 67.6714 58.8119Z" fill="black"/>
</svg>
