<svg width="109" height="109" viewBox="0 0 109 109" fill="none" xmlns="http://www.w3.org/2000/svg">
<path d="M54.4973 0C84.578 0 109 24.4221 109 54.5028C109 84.578 84.578 109 54.4973 109C24.4221 109 0 84.578 0 54.5028C0 24.4221 24.4221 0 54.4973 0ZM54.4973 8.17705C28.9304 8.17705 8.17705 28.9359 8.17705 54.5028C8.17705 80.0697 28.9304 100.823 54.4973 100.823C80.0642 100.823 100.823 80.0697 100.823 54.5028C100.823 28.9359 80.0642 8.17705 54.4973 8.17705ZM50.4251 50.4251H31.3454C29.0885 50.4251 27.2568 52.2568 27.2568 54.5137C27.2568 56.7705 29.0885 58.6022 31.3454 58.6022H50.4251V77.682C50.4251 79.9389 52.2568 81.7705 54.5137 81.7705C56.7705 81.7705 58.6022 79.9389 58.6022 77.682V58.6022H77.682C79.9388 58.6022 81.7705 56.7705 81.7705 54.5137C81.7705 52.2568 79.9388 50.4251 77.682 50.4251H58.6022V31.3454C58.6022 29.0885 56.7705 27.2568 54.5137 27.2568C52.2568 27.2568 50.4251 29.0885 50.4251 31.3454V50.4251Z" fill="black"/>
</svg>
