<svg width="39" height="30" viewBox="0 0 39 30" fill="none" xmlns="http://www.w3.org/2000/svg">
<path d="M13.8649 0.460472C13.8649 0.460472 4.22543 10.1085 0.471158 13.8649C0.156339 14.1776 0 14.5888 0 15C0 15.4112 0.156339 15.8224 0.471158 16.135C4.22329 19.8915 13.8606 29.5352 13.8606 29.5352C14.1711 29.8457 14.5802 29.9999 14.9892 29.9999C15.3983 29.9978 15.8095 29.8415 16.1243 29.5266C16.7518 28.8991 16.7539 27.8861 16.1329 27.2629L5.47614 16.6062H36.9409C37.8276 16.6062 38.5471 15.8866 38.5471 15C38.5471 14.1133 37.8276 13.3938 36.9409 13.3938H5.47614L16.1372 2.7306C16.7561 2.11167 16.7518 1.10082 16.1243 0.473322C15.8095 0.158503 15.3983 2.20037e-05 14.9892 2.20037e-05C14.5802 -0.00211962 14.1754 0.152078 13.8649 0.460472Z" fill="black"/>
</svg>
