<svg width="30" height="30" viewBox="0 0 30 30" fill="none" xmlns="http://www.w3.org/2000/svg">
<path d="M21.6178 19.2808L15.3876 11.6342L15.0006 11.1591L14.6128 11.6336L8.36959 19.2731L8.18601 19.1042L14.9997 10.7893L21.8082 19.1127L21.6178 19.2808ZM15 0.5C23.0026 0.5 29.5 6.99739 29.5 15C29.5 23.0026 23.0026 29.5 15 29.5C6.99739 29.5 0.5 23.0026 0.5 15C0.5 6.99739 6.99739 0.5 15 0.5ZM29.25 15C29.25 7.13511 22.8649 0.75 15 0.75C7.13511 0.75 0.75 7.13511 0.75 15C0.75 22.8649 7.13511 29.25 15 29.25C22.8649 29.25 29.25 22.8649 29.25 15Z" fill="black" stroke="black"/>
</svg>
