<svg width="347" height="78" viewBox="0 0 347 78" fill="none" xmlns="http://www.w3.org/2000/svg">
<path d="M308 0C286.462 0 269 17.4622 269 39C269 60.5378 286.462 78 308 78C329.538 78 347 60.5378 347 39C347 17.4622 329.538 0 308 0ZM303.938 53.6835L289.312 39.6468L293.849 34.983L303.853 44.5283L323.694 24.3197L328.312 28.899L303.938 53.6835Z" fill="#265C1E"/>
<path d="M39 0C17.4622 0 0 17.4622 0 39C0 60.5378 17.4622 78 39 78C60.5378 78 78 60.5378 78 39C78 17.4622 60.5378 0 39 0ZM53.9403 58.3505L39.0195 43.563L24.2158 58.5L19.6495 53.9337L34.4272 39.0098L19.5 24.2158L24.0662 19.6495L38.9772 34.4142L53.7485 19.5L58.3505 24.0597L43.576 38.9675L58.5 53.7485L53.9403 58.3505Z" fill="#AD0C0C"/>
</svg>
