<svg width="75" height="63" viewBox="0 0 75 63" fill="none" xmlns="http://www.w3.org/2000/svg">
<path d="M31.25 23.3352L40.5094 31.5L31.25 39.6648V34.65H6.25V28.35H31.25V23.3352ZM25 9.45V22.05H0V40.95H25V53.55L50 31.5L25 9.45ZM43.75 0C38.1656 0 32.9375 1.4931 28.4031 4.07925L29.1156 4.70925L33.4781 8.5554C36.6156 7.119 40.0844 6.3 43.75 6.3C57.5344 6.3 68.75 17.6054 68.75 31.5C68.75 45.3946 57.5344 56.7 43.75 56.7C40.0844 56.7 36.6156 55.881 33.475 54.4478L29.1125 58.2939L28.4 58.9239C32.9375 61.5069 38.1656 63 43.75 63C61.0062 63 75 48.8974 75 31.5C75 14.1026 61.0062 0 43.75 0Z" fill="black"/>
</svg>
