<svg width="79" height="79" viewBox="0 0 79 79" fill="none" xmlns="http://www.w3.org/2000/svg">
<path d="M68.3002 59.2442C57.1616 56.6725 46.7907 54.4182 51.8142 44.9348C67.0985 16.0698 55.8661 0.633301 39.7267 0.633301C23.2667 0.633301 12.3096 16.6625 27.6392 44.9348C32.8149 54.4733 22.0521 56.7276 11.1533 59.2442C1.50464 61.4725 0.860107 66.1851 0.860107 74.3471L0.876302 78.3665H7.33788C7.33788 68.2159 6.93302 66.8685 13.2909 65.4013C22.525 63.2733 31.2441 61.262 34.4247 54.2077C35.5874 51.6328 36.3421 47.3963 33.3299 41.8514C26.6643 29.5468 24.9801 18.8909 28.721 12.6172C33.1064 5.24871 46.2952 5.28434 50.6385 12.5071C54.3632 18.6966 52.7082 29.4108 46.0944 41.9032C43.147 47.4708 43.9211 51.6943 45.0903 54.2563C48.2968 61.2749 57.0969 63.3057 66.4151 65.4563C72.501 66.8685 72.1156 68.313 72.1156 78.3665H78.5772L78.5933 74.3471C78.5933 66.1851 77.9488 61.4725 68.3002 59.2442Z" fill="black"/>
</svg>
